<?xml version="1.0" encoding="UTF-8"?>
<svg xmlns="http://www.w3.org/2000/svg" xmlns:xlink="http://www.w3.org/1999/xlink" width="128px" height="128px" viewBox="0 0 128 128" version="1.1">
<g id="surface1">
<path style=" stroke:none;fill-rule:nonzero;fill:rgb(91.764706%,86.274511%,12.54902%);fill-opacity:1;" d="M 117.332031 4.265625 L 76.800781 4.265625 L 76.800781 2.132812 C 76.800781 0.957031 75.847656 0 74.667969 0 L 53.332031 0 C 52.152344 0 51.199219 0.957031 51.199219 2.132812 L 51.199219 4.265625 L 10.667969 4.265625 C 4.785156 4.265625 0 9.050781 0 14.933594 L 0 61.867188 C 0 63.042969 0.953125 64 2.132812 64 L 117.332031 64 C 118.511719 64 119.464844 63.042969 119.464844 61.867188 L 119.464844 17.066406 C 119.464844 14.714844 117.554688 12.800781 115.199219 12.800781 L 83.199219 12.800781 C 82.019531 12.800781 81.066406 13.753906 81.066406 14.933594 C 81.066406 16.109375 82.019531 17.066406 83.199219 17.066406 L 115.199219 17.066406 L 115.199219 59.734375 L 110.933594 59.734375 L 110.933594 53.332031 C 110.933594 52.15625 109.980469 51.199219 108.800781 51.199219 L 96 51.199219 C 94.820312 51.199219 93.867188 52.15625 93.867188 53.332031 C 93.867188 54.511719 94.820312 55.464844 96 55.464844 L 106.667969 55.464844 L 106.667969 59.734375 L 85.332031 59.734375 L 85.332031 55.464844 L 87.464844 55.464844 C 88.648438 55.464844 89.601562 54.511719 89.601562 53.332031 L 89.601562 46.933594 L 108.800781 46.933594 C 109.980469 46.933594 110.933594 45.976562 110.933594 44.800781 C 110.933594 43.621094 109.980469 42.667969 108.800781 42.667969 L 91.554688 42.667969 L 88.972656 38.191406 L 103.753906 29.65625 L 105.886719 33.351562 L 101.332031 35.980469 C 100.3125 36.570312 99.960938 37.875 100.550781 38.894531 C 101.140625 39.914062 102.445312 40.261719 103.464844 39.675781 L 109.867188 35.980469 C 110.355469 35.699219 110.714844 35.234375 110.859375 34.6875 C 111.007812 34.136719 110.929688 33.558594 110.648438 33.066406 L 106.382812 25.675781 C 105.789062 24.65625 104.484375 24.308594 103.464844 24.898438 L 84.992188 35.5625 C 84.5 35.847656 84.144531 36.3125 83.996094 36.859375 C 83.851562 37.40625 83.925781 37.988281 84.210938 38.476562 L 86.714844 42.820312 C 85.910156 43.125 85.332031 43.886719 85.332031 44.800781 L 85.332031 51.199219 L 83.199219 51.199219 C 82.019531 51.199219 81.066406 52.15625 81.066406 53.332031 L 81.066406 59.734375 L 76.40625 59.734375 C 75.523438 57.253906 73.179688 55.46875 70.398438 55.46875 C 67.621094 55.46875 65.277344 57.253906 64.394531 59.734375 L 52.714844 59.734375 C 55.046875 55.035156 56.527344 49.640625 57.175781 46.933594 L 57.601562 46.933594 C 58.78125 46.933594 59.734375 45.976562 59.734375 44.800781 L 59.734375 36.265625 C 59.734375 35.089844 58.78125 34.132812 57.601562 34.132812 L 50.804688 34.132812 C 49.921875 31.65625 47.578125 29.867188 44.800781 29.867188 C 42.023438 29.867188 39.679688 31.65625 38.796875 34.132812 L 33.738281 34.132812 C 33.980469 33.464844 34.132812 32.75 34.132812 32 C 34.132812 28.472656 31.261719 25.601562 27.734375 25.601562 C 24.207031 25.601562 21.332031 28.472656 21.332031 32 C 21.332031 32.75 21.488281 33.464844 21.726562 34.132812 L 19.199219 34.132812 C 18.019531 34.132812 17.066406 35.089844 17.066406 36.265625 L 17.066406 44.800781 C 17.066406 45.976562 18.019531 46.933594 19.199219 46.933594 L 19.625 46.933594 C 20.273438 49.636719 21.753906 55.035156 24.085938 59.734375 L 4.265625 59.734375 L 4.265625 14.933594 C 4.265625 11.40625 7.136719 8.535156 10.667969 8.535156 L 51.199219 8.535156 L 51.199219 14.933594 C 51.199219 18.703125 53.832031 21.332031 57.601562 21.332031 L 70.398438 21.332031 C 74.167969 21.332031 76.800781 18.703125 76.800781 14.933594 L 76.800781 8.535156 L 117.332031 8.535156 C 120.863281 8.535156 123.734375 11.40625 123.734375 14.933594 L 123.734375 117.332031 C 123.734375 120.863281 120.863281 123.734375 117.332031 123.734375 L 10.667969 123.734375 C 7.136719 123.734375 4.265625 120.863281 4.265625 117.332031 L 4.265625 70.398438 C 4.265625 69.222656 3.3125 68.265625 2.132812 68.265625 C 0.953125 68.265625 0 69.222656 0 70.398438 L 0 117.332031 C 0 123.214844 4.785156 128 10.667969 128 L 117.332031 128 C 123.214844 128 128 123.214844 128 117.332031 L 128 14.933594 C 128 9.050781 123.214844 4.265625 117.332031 4.265625 Z M 27.734375 29.867188 C 28.910156 29.867188 29.867188 30.824219 29.867188 32 C 29.867188 33.175781 28.910156 34.132812 27.734375 34.132812 C 26.554688 34.132812 25.601562 33.175781 25.601562 32 C 25.601562 30.824219 26.554688 29.867188 27.734375 29.867188 Z M 24.027344 46.933594 L 44.800781 46.933594 C 45.980469 46.933594 46.933594 45.976562 46.933594 44.800781 C 46.933594 43.621094 45.980469 42.667969 44.800781 42.667969 L 21.332031 42.667969 L 21.332031 38.398438 L 55.464844 38.398438 L 55.464844 42.667969 C 54.449219 42.667969 53.574219 43.382812 53.375 44.382812 C 53.355469 44.480469 51.480469 53.683594 47.878906 59.734375 L 28.917969 59.734375 C 26.488281 55.648438 24.84375 50.121094 24.027344 46.933594 Z M 72.535156 14.933594 C 72.535156 16.351562 71.8125 17.066406 70.398438 17.066406 L 66.132812 17.066406 L 66.132812 14.933594 C 66.132812 13.753906 65.179688 12.800781 64 12.800781 C 62.820312 12.800781 61.867188 13.753906 61.867188 14.933594 L 61.867188 17.066406 L 57.601562 17.066406 C 56.183594 17.066406 55.464844 16.351562 55.464844 14.933594 L 55.464844 4.265625 L 72.535156 4.265625 Z M 72.535156 14.933594 "/>
<path style=" stroke:none;fill-rule:nonzero;fill:rgb(91.764706%,86.274511%,12.54902%);fill-opacity:1;" d="M 49.066406 102.398438 L 23.464844 102.398438 C 22.285156 102.398438 21.332031 103.355469 21.332031 104.535156 C 21.332031 105.710938 22.285156 106.667969 23.464844 106.667969 L 49.066406 106.667969 C 50.246094 106.667969 51.199219 105.710938 51.199219 104.535156 C 51.199219 103.355469 50.246094 102.398438 49.066406 102.398438 Z M 49.066406 102.398438 "/>
<path style=" stroke:none;fill-rule:nonzero;fill:rgb(91.764706%,86.274511%,12.54902%);fill-opacity:1;" d="M 74.667969 102.398438 L 83.199219 102.398438 C 84.378906 102.398438 85.332031 101.445312 85.332031 100.265625 C 85.332031 99.089844 84.378906 98.132812 83.199219 98.132812 L 74.667969 98.132812 C 73.488281 98.132812 72.535156 99.089844 72.535156 100.265625 C 72.535156 101.445312 73.488281 102.398438 74.667969 102.398438 Z M 74.667969 102.398438 "/>
<path style=" stroke:none;fill-rule:nonzero;fill:rgb(91.764706%,86.274511%,12.54902%);fill-opacity:1;" d="M 53.332031 68.265625 L 10.667969 68.265625 C 9.488281 68.265625 8.535156 69.222656 8.535156 70.398438 L 8.535156 117.332031 C 8.535156 118.511719 9.488281 119.464844 10.667969 119.464844 L 117.332031 119.464844 C 118.511719 119.464844 119.464844 118.511719 119.464844 117.332031 L 119.464844 70.398438 C 119.464844 69.222656 118.511719 68.265625 117.332031 68.265625 L 61.867188 68.265625 C 60.6875 68.265625 59.734375 69.222656 59.734375 70.398438 C 59.734375 71.578125 60.6875 72.535156 61.867188 72.535156 L 72.535156 72.535156 L 72.535156 81.066406 C 72.535156 85.773438 68.707031 89.601562 64 89.601562 C 59.292969 89.601562 55.46875 85.773438 55.46875 81.066406 L 55.46875 70.398438 C 55.464844 69.222656 54.511719 68.265625 53.332031 68.265625 Z M 64 93.867188 C 71.058594 93.867188 76.800781 88.125 76.800781 81.066406 L 76.800781 72.535156 L 115.199219 72.535156 L 115.199219 89.601562 L 100.265625 89.601562 C 99.085938 89.601562 98.132812 90.554688 98.132812 91.734375 C 98.132812 92.910156 99.085938 93.867188 100.265625 93.867188 L 115.199219 93.867188 L 115.199219 115.199219 L 12.800781 115.199219 L 12.800781 93.867188 L 19.199219 93.867188 C 20.378906 93.867188 21.332031 92.910156 21.332031 91.734375 C 21.332031 90.554688 20.378906 89.601562 19.199219 89.601562 L 12.800781 89.601562 L 12.800781 72.535156 L 51.199219 72.535156 L 51.199219 81.066406 C 51.199219 88.125 56.941406 93.867188 64 93.867188 Z M 64 93.867188 "/>
<path style=" stroke:none;fill-rule:nonzero;fill:rgb(91.764706%,86.274511%,12.54902%);fill-opacity:1;" d="M 72.535156 32 C 72.535156 28.472656 69.660156 25.601562 66.132812 25.601562 C 62.605469 25.601562 59.734375 28.472656 59.734375 32 C 59.734375 35.527344 62.605469 38.398438 66.132812 38.398438 C 69.660156 38.398438 72.535156 35.527344 72.535156 32 Z M 66.132812 34.132812 C 64.957031 34.132812 64 33.175781 64 32 C 64 30.824219 64.957031 29.867188 66.132812 29.867188 C 67.3125 29.867188 68.265625 30.824219 68.265625 32 C 68.265625 33.175781 67.3125 34.132812 66.132812 34.132812 Z M 66.132812 34.132812 "/>
<path style=" stroke:none;fill-rule:nonzero;fill:rgb(91.764706%,86.274511%,12.54902%);fill-opacity:1;" d="M 12.800781 12.800781 C 10.445312 12.800781 8.535156 14.714844 8.535156 17.066406 L 8.535156 53.332031 C 8.535156 54.511719 9.488281 55.464844 10.667969 55.464844 C 11.847656 55.464844 12.800781 54.511719 12.800781 53.332031 L 12.800781 17.066406 L 44.800781 17.066406 C 45.980469 17.066406 46.933594 16.109375 46.933594 14.933594 C 46.933594 13.757812 45.980469 12.800781 44.800781 12.800781 Z M 12.800781 12.800781 "/>
<path style=" stroke:none;fill-rule:nonzero;fill:rgb(91.764706%,86.274511%,12.54902%);fill-opacity:1;" d="M 74.667969 51.199219 C 78.195312 51.199219 81.066406 48.328125 81.066406 44.800781 C 81.066406 41.273438 78.195312 38.398438 74.667969 38.398438 C 71.136719 38.398438 68.265625 41.273438 68.265625 44.800781 C 68.265625 48.328125 71.136719 51.199219 74.667969 51.199219 Z M 74.667969 42.667969 C 75.84375 42.667969 76.800781 43.625 76.800781 44.800781 C 76.800781 45.976562 75.84375 46.933594 74.667969 46.933594 C 73.488281 46.933594 72.535156 45.976562 72.535156 44.800781 C 72.535156 43.625 73.488281 42.667969 74.667969 42.667969 Z M 74.667969 42.667969 "/>
<path style=" stroke:none;fill-rule:nonzero;fill:rgb(91.764706%,86.274511%,12.54902%);fill-opacity:1;" d="M 66.132812 81.066406 L 66.132812 78.933594 C 66.132812 77.757812 65.179688 76.800781 64 76.800781 C 62.820312 76.800781 61.867188 77.757812 61.867188 78.933594 L 61.867188 81.066406 C 61.867188 82.246094 62.820312 83.199219 64 83.199219 C 65.179688 83.199219 66.132812 82.246094 66.132812 81.066406 Z M 66.132812 81.066406 "/>
</g>
</svg>
